<?xml version="1.0" encoding="utf-8"?>
<!-- Generator: Adobe Illustrator 19.1.0, SVG Export Plug-In . SVG Version: 6.00 Build 0)  -->
<svg version="1.1" xmlns="http://www.w3.org/2000/svg" xmlns:xlink="http://www.w3.org/1999/xlink" x="0px" y="0px"
	 viewBox="0 0 50 50" style="enable-background:new 0 0 50 50;" xml:space="preserve">
<style type="text/css">
	.st0{display:none;}
	.st1{display:inline;fill:#4D4D4D;}
	.st2{display:inline;fill:none;stroke:#8C6239;stroke-width:3;stroke-miterlimit:10;}
	.st3{fill:none;stroke:#94B3D3;stroke-width:4;stroke-miterlimit:10;}
</style>
<g id="Layer_2" class="st0">
	<path id="XMLID_1_" class="st1" d="M0,50c0,0,10.9-25.5,16.5-32.9c3.6-4.7,13.6-5.4,17.1,0C38.6,24.8,50,50,50,50H40
		c0,0-7.6-18.9-10.4-25c-1.7-3.6-7.2-3.7-9.1,0C17.3,31.1,9.1,50,9.1,50H0z"/>
	<line id="XMLID_4_" class="st2" x1="30" y1="32.9" x2="19" y2="32.9"/>
	<line id="XMLID_6_" class="st2" x1="33.4" y1="43.1" x2="15.6" y2="43.1"/>
	<line id="XMLID_5_" class="st2" x1="33.4" y1="43.1" x2="15.6" y2="43.1"/>
</g>
<g id="Arrow">
	<polyline class="st3" points="1.5,42.9 24.5,15.9 48.4,42.9 	"/>
</g>
</svg>
